# xmcd
#
# Track frame offsets:
#	150
#	22081
#	41294
#	65594
#	82803
#	102671
#	128178
#	153665
#	172387
#	193002
#	214152
#
# Disc length: 3230 seconds
#
# Revision: 0
# Processed by: cddbd v1.5.2PL0 Copyright (c) Steve Scherf et al.
# Submitted via: EasyCDDAExtractor 16.0.9.1
#
DISCID=9f0c9c0b
DTITLE=Hà Vân - THVCD: Tiếng Hát Hà Vân
DYEAR=2015
DGENRE=Country
TTITLE0=Hà Vân - Tấm Ảnh Không Hồn (Hoài An)
TTITLE1=Hà Vân - Mưa Rừng (Huỳnh Anh)
TTITLE2=Hà Vân - Người Tình (Phương Kim)
TTITLE3=Hà Vân - Kiếp Nghèo (Lam Phương)
TTITLE4=Hà Vân - Đêm Tâm Sự (Trúc Phương)
TTITLE5=Hà Vân - Dấu Chân Kỷ Niệm (Thúc Đăng)
TTITLE6=Hà Vân and Đàm Vĩnh Hưng - Đôi Ngã Chia Ly (Khánh Băng)
TTITLE7=Hà Vân - Trang Nhật Ký (Hoàng Trọng)
TTITLE8=Hà Vân - Đà Lạt Hoàng Hôn (Minh Kỳ - Dạ Cầm)
TTITLE9=Hà Vân - Về Đâu Mái Tóc Người Thương (Hoài Linh)
TTITLE10=Hà Vân - Không Bao Giờ Quên Anh (Hoàng Trang)
EXTD=
EXTT0=
EXTT1=
EXTT2=
EXTT3=
EXTT4=
EXTT5=
EXTT6=
EXTT7=
EXTT8=
EXTT9=
EXTT10=
PLAYORDER=
